<?xml version="1.0" encoding="UTF-8" standalone="no"?>
<!-- Generator: Adobe Illustrator 16.0.0, SVG Export Plug-In . SVG Version: 6.00 Build 0)  -->

<svg
   xmlns:dc="http://purl.org/dc/elements/1.1/"
   xmlns:cc="http://creativecommons.org/ns#"
   xmlns:rdf="http://www.w3.org/1999/02/22-rdf-syntax-ns#"
   xmlns:svg="http://www.w3.org/2000/svg"
   xmlns="http://www.w3.org/2000/svg"
   xmlns:sodipodi="http://sodipodi.sourceforge.net/DTD/sodipodi-0.dtd"
   xmlns:inkscape="http://www.inkscape.org/namespaces/inkscape"
   version="1.1"
   id="Capa_1"
   x="0px"
   y="0px"
   width="455.462px"
   height="455.462px"
   viewBox="0 0 455.462 455.462"
   style="enable-background:new 0 0 455.462 455.462;"
   xml:space="preserve"
   inkscape:version="0.91+devel+osxmenu r12922"
   sodipodi:docname="icon.svg"><metadata
     id="metadata58"><rdf:RDF><cc:Work
         rdf:about=""><dc:format>image/svg+xml</dc:format><dc:type
           rdf:resource="http://purl.org/dc/dcmitype/StillImage" /></cc:Work></rdf:RDF></metadata><defs
     id="defs56" /><sodipodi:namedview
     pagecolor="#ffffff"
     bordercolor="#666666"
     borderopacity="1"
     objecttolerance="10"
     gridtolerance="10"
     guidetolerance="10"
     inkscape:pageopacity="0"
     inkscape:pageshadow="2"
     inkscape:window-width="640"
     inkscape:window-height="480"
     id="namedview54"
     showgrid="false"
     inkscape:zoom="0.51815519"
     inkscape:cx="227.731"
     inkscape:cy="227.731"
     inkscape:window-x="0"
     inkscape:window-y="22"
     inkscape:window-maximized="0"
     inkscape:current-layer="Capa_1" /><g
     id="g11"
     transform="matrix(-1,0,0,1,455.46223,0)"><g
       id="Layer_3_26_"><g
         id="g14"><path
           d="m 454.141,288.999 c -1.913,-3.12 -5.532,-4.765 -9.139,-4.152 -0.169,0.028 -16.773,2.815 -29.969,2.904 20.757,-33.023 31.146,-76.582 31.689,-132.554 0.049,-4.912 -3.867,-8.947 -8.778,-9.047 -1.23,-0.025 -2.517,-0.038 -3.851,-0.038 -20.696,0 -54.278,3.098 -86.46,11.792 -31.148,8.416 -53.854,20.026 -67.749,34.613 -8.282,-13.577 -17.666,-24.802 -27.995,-33.474 -16.055,-13.476 -34.458,-20.885 -54.7,-22.022 -1.096,-0.062 -2.215,-0.093 -3.327,-0.093 -38.278,0 -78.573,37.02 -100.401,60.658 2.263,-18.054 2.772,-36.904 0.184,-55.197 2.862,-5.914 9.676,-22.493 6.063,-40.07 C 95.293,80.833 77.142,66.853 76.371,66.268 c -1.723,-1.307 -3.924,-1.803 -6.043,-1.372 -2.117,0.436 -3.944,1.763 -5.012,3.644 -0.479,0.841 -11.646,20.846 -7.229,42.333 3.468,16.875 15.404,29.116 20.743,33.878 9.57,68.751 -29.171,149.523 -29.637,150.482 -1.814,3.725 -0.267,8.214 3.457,10.027 1.058,0.516 2.177,0.759 3.279,0.759 2.778,0 5.449,-1.55 6.748,-4.216 0.979,-2.009 14.047,-29.19 23.365,-65.692 11.711,12.772 18.454,29.682 25.504,47.432 7.186,18.092 14.616,36.8 27.919,53.16 15.129,18.605 34.392,32.68 57.254,41.832 20.196,8.084 42.747,12.183 67.026,12.183 38.163,0 79.182,-10.67 109.726,-28.542 58.265,-34.092 79.354,-61.979 80.225,-63.148 2.181,-2.94 2.357,-6.909 0.445,-10.029 z M 72.78,107.853 c -1.692,-8.23 -0.148,-16.47 1.74,-22.514 4.127,4.823 8.81,11.799 10.494,20 1.692,8.229 0.149,16.467 -1.74,22.513 -4.127,-4.823 -8.809,-11.799 -10.494,-19.999 z m 291.639,238.852 c -27.917,16.336 -65.552,26.088 -100.673,26.088 -32.771,0 -78.52,-8.224 -110.372,-47.398 -11.567,-14.226 -18.482,-31.634 -25.169,-48.469 -7.859,-19.789 -15.957,-40.172 -31.656,-55.788 19.316,-23.146 62.509,-66.286 97.314,-66.286 0.778,0 1.56,0.021 2.321,0.064 30.631,1.72 55.716,21.217 74.558,57.948 1.495,2.914 4.46,4.78 7.733,4.868 3.305,0.081 6.334,-1.617 7.983,-4.447 20.718,-35.552 101.181,-48.126 142.158,-49.178 -1.662,54.505 -13.546,95.4 -36.231,124.826 -1.584,2.055 -2.2,4.696 -1.688,7.24 0.512,2.544 2.101,4.741 4.355,6.022 4.177,2.374 10.32,3.479 19.338,3.479 2.645,0 5.39,-0.096 8.119,-0.255 -11.854,10.584 -30.589,25.194 -58.09,41.286 z"
           id="path16"
           inkscape:connector-curvature="0" /><path
           d="m 155.756,204.563 c -17.846,0.044 -17.939,27.625 -0.084,27.734 l 0.002,0 c 0.039,0 0.068,0.001 0.105,0.001 -0.035,0 -0.068,-0.001 -0.104,-0.001 18.071,0.107 18.093,-27.78 0.081,-27.734 z"
           id="path18"
           inkscape:connector-curvature="0" /><path
           d="m 104.161,157.038 c 1.329,1.04 2.959,1.592 4.62,1.592 0.467,0 0.936,-0.043 1.401,-0.132 0.95,-0.181 23.427,-4.625 36.939,-21.903 13.516,-17.279 12.414,-40.163 12.36,-41.129 -0.119,-2.159 -1.165,-4.161 -2.868,-5.493 -1.703,-1.333 -3.897,-1.866 -6.021,-1.46 -0.95,0.181 -23.425,4.625 -36.939,21.903 -13.516,17.279 -12.414,40.163 -12.36,41.129 0.119,2.159 1.165,4.161 2.868,5.493 z m 21.307,-37.381 c 5.178,-6.618 12.455,-10.777 18.283,-13.252 -1.002,6.269 -3.285,14.354 -8.444,20.948 -5.175,6.618 -12.451,10.776 -18.282,13.251 1.001,-6.267 3.286,-14.353 8.443,-20.947 z"
           id="path20"
           inkscape:connector-curvature="0" /><path
           d="m 57.055,167.894 c 7.753,0 13.33,-1.213 13.563,-1.265 2.111,-0.466 3.919,-1.821 4.958,-3.717 1.039,-1.896 1.21,-4.147 0.469,-6.179 -0.332,-0.908 -8.346,-22.372 -27.579,-32.92 -8.139,-4.464 -18.174,-6.824 -29.02,-6.824 -7.753,0 -13.33,1.212 -13.564,1.264 -2.11,0.466 -3.918,1.821 -4.958,3.716 -1.039,1.896 -1.211,4.148 -0.469,6.179 0.331,0.909 8.344,22.373 27.579,32.921 8.139,4.464 18.174,6.824 29.019,6.824 0,0.001 0.001,0.001 0.002,0.001 z M 19.202,131.989 c 5.805,-0.049 14.446,0.805 22.051,4.975 7.379,4.047 12.662,10.571 16.045,15.929 -0.081,0 -0.161,0 -0.243,0 l -10e-4,0 c -5.81,0 -14.309,-0.864 -21.807,-4.976 -7.38,-4.046 -12.663,-10.571 -16.045,-15.928 z"
           id="path22"
           inkscape:connector-curvature="0" /></g></g></g><g
     id="g24" /><g
     id="g26" /><g
     id="g28" /><g
     id="g30" /><g
     id="g32" /><g
     id="g34" /><g
     id="g36" /><g
     id="g38" /><g
     id="g40" /><g
     id="g42" /><g
     id="g44" /><g
     id="g46" /><g
     id="g48" /><g
     id="g50" /><g
     id="g52" /></svg>